<svg width="20" height="28" viewBox="0 0 20 28" fill="none" xmlns="http://www.w3.org/2000/svg">
    <path d="M2.2425 11.7773C0.938504 11.7773 0.666504 12.0333 0.666504 13.2587V15.4813C0.666504 16.708 0.938504 16.9627 2.2425 16.9627H5.39317V25.852C5.39317 27.0787 5.6665 27.3333 6.96917 27.3333H10.1212C11.4252 27.3333 11.6972 27.0773 11.6972 25.852V16.9627H15.2358C16.2238 16.9627 16.4785 16.7827 16.7505 15.888L17.4265 13.6667C17.8918 12.1347 17.6038 11.7773 15.9105 11.7773H11.6972V8.07467C11.6972 7.256 12.4025 6.592 13.2718 6.592H17.7572C19.0612 6.592 19.3332 6.33733 19.3332 5.112V2.14667C19.3332 0.921333 19.0612 0.666667 17.7572 0.666667H13.2718C8.92117 0.666667 5.39317 3.98267 5.39317 8.07467V11.7773H2.2425Z" stroke="white" stroke-linecap="round" stroke-linejoin="round"/>
</svg>
