<svg width="170" height="121" viewBox="0 0 170 121" fill="none" xmlns="http://www.w3.org/2000/svg">
    <g clip-path="url(#clip0_1334_1392)">
        <path d="M43.9567 106.111L43.3335 107.247L59.9772 116.378L60.6004 115.242L43.9567 106.111Z" fill="white"/>
        <path d="M43.9603 96.799L43.3276 97.9297L59.9726 107.244L60.6053 106.113L43.9603 96.799Z" fill="white"/>
        <path d="M43.9561 92.2745L43.3306 93.4092L59.9748 102.586L60.6004 101.451L43.9561 92.2745Z" fill="white"/>
        <path d="M29.5531 32.7472L28.9204 33.8779L45.5654 43.1919L46.198 42.0612L29.5531 32.7472Z" fill="white"/>
        <path d="M29.5482 28.2208L28.9226 29.3555L45.5668 38.5322L46.1924 37.3976L29.5482 28.2208Z" fill="white"/>
        <path d="M0.811687 106.118L0.193848 107.257L17.0031 116.376L17.6209 115.237L0.811687 106.118Z" fill="white"/>
        <path d="M0.820276 101.368L0.193115 102.502L17.0033 111.801L17.6304 110.667L0.820276 101.368Z" fill="white"/>
        <path d="M0.819945 96.8637L0.195557 97.999L17.0066 107.245L17.631 106.109L0.819945 96.8637Z" fill="white"/>
        <path d="M0.817185 92.2719L0.19458 93.4082L17.0048 102.619L17.6274 101.483L0.817185 92.2719Z" fill="white"/>
        <path d="M0.813993 87.7521L0.195557 88.8906L17.0044 98.0209L17.6228 96.8823L0.813993 87.7521Z" fill="white"/>
        <path d="M0.817047 83.0623L0.193848 84.1982L17.0036 93.4204L17.6268 92.2845L0.817047 83.0623Z" fill="white"/>
        <path d="M0.815461 78.4784L0.193848 79.6152L17.0034 88.8067L17.625 87.6699L0.815461 78.4784Z" fill="white"/>
        <path d="M0.814728 73.872L0.193115 75.0088L17.0026 84.2003L17.6242 83.0635L0.814728 73.872Z" fill="white"/>
        <path d="M0.820057 41.8429L0.190918 42.9756L17.0001 52.3122L17.6292 51.1796L0.820057 41.8429Z" fill="white"/>
        <path d="M0.820276 37.3164L0.193115 38.4502L17.0033 47.7491L17.6305 46.6153L0.820276 37.3164Z" fill="white"/>
        <path d="M0.817504 32.811L0.193115 33.9463L17.0041 43.192L17.6285 42.0568L0.817504 32.811Z" fill="white"/>
        <path d="M0.818894 28.2212L0.196289 29.3574L17.0065 38.5684L17.6291 37.4321L0.818894 28.2212Z" fill="white"/>
        <path d="M0.815457 23.6974L0.197021 24.8359L17.0059 33.9662L17.6243 32.8276L0.815457 23.6974Z" fill="white"/>
        <path d="M0.817047 19.0037L0.193848 20.1396L17.0036 29.3618L17.6268 28.2259L0.817047 19.0037Z" fill="white"/>
        <path d="M0.81717 14.4218L0.195557 15.5586L17.0051 24.7501L17.6267 23.6133L0.81717 14.4218Z" fill="white"/>
        <path d="M0.81717 9.81241L0.195557 10.9492L17.0051 20.1407L17.6267 19.0039L0.81717 9.81241Z" fill="white"/>
        <path d="M0.817383 46.4039L0.19458 47.54L17.0032 56.7539L17.626 55.6178L0.817383 46.4039Z" fill="white"/>
        <path d="M0.819801 5.09237L0.19165 6.22559L17.0002 15.5427L17.6284 14.4095L0.819801 5.09237Z" fill="white"/>
        <path d="M149.128 9.72744V0L0.76993 0.336374L0.0722656 1.73669L17.0479 11.0829H149.118L149.071 23.4665L29.6533 23.2846L28.9282 24.5728L45.727 34.0286L166.156 33.6623V9.83458L149.128 9.72744ZM46.0633 32.7304L32.0154 24.8269L149.547 24.7671L163.049 32.3791L46.0633 32.7329V32.7304ZM164.861 31.9082L150.369 23.7356L150.417 11.0306L164.861 11.1203V31.9057V31.9082Z" fill="white"/>
        <path d="M152.674 96.6938V87.3252H44.0674L43.3024 88.8326L60.2383 98.1415H152.362L152.305 110.53H60.3579L43.9602 101.378L43.3298 102.509L60.0215 111.826H152.779L166.697 119.704H60.3479L43.9602 110.582L43.3298 111.714L57.6843 119.704H17.5187L0.81715 110.675L0.199219 111.816L17.1923 121H169.353V96.6938H152.676H152.674ZM168.055 118.982L153.601 110.802L153.661 97.9895H168.052V118.982H168.055Z" fill="white"/>
        <path d="M135.038 46.0256L45.6875 46.3421L29.554 37.3223L28.9186 38.4485L45.5654 47.7573L45.5779 47.7349V50.8545L29.549 42.0589L28.9261 43.1901L45.5704 52.327L45.5779 52.3096V55.2822L29.549 46.4044L28.9236 47.5406L45.5804 56.7572V56.8469L134.46 56.8768L134.259 69.3526L0.526178 69.3476L0.00292969 70.4613L17.1555 79.6755L151.68 79.5983V56.8818H151.688V55.5114L135.041 46.0207L135.038 46.0256ZM17.4769 78.3823L3.08511 70.6457L134.727 70.6507L148.533 78.3051L17.4794 78.3823H17.4769ZM150.382 77.8516L135.549 69.6217L135.756 57.1634H150.382V77.8491V77.8516Z" fill="white"/>
    </g>
    <defs>
        <clipPath id="clip0_1334_1392">
            <rect width="169.353" height="121" fill="white"/>
        </clipPath>
    </defs>
</svg>
