<svg width="28" height="28" viewBox="0 0 28 28" fill="none" xmlns="http://www.w3.org/2000/svg">
    <path d="M1.3335 14C1.3335 8.02933 1.3335 5.04267 3.18816 3.188C5.04283 1.33333 8.02816 1.33333 14.0002 1.33333C19.9708 1.33333 22.9575 1.33333 24.8122 3.188C26.6668 5.04267 26.6668 8.028 26.6668 14C26.6668 19.9707 26.6668 22.9573 24.8122 24.812C22.9575 26.6667 19.9722 26.6667 14.0002 26.6667C8.0295 26.6667 5.04283 26.6667 3.18816 24.812C1.3335 22.9573 1.3335 19.972 1.3335 14Z" stroke="white" stroke-linecap="round" stroke-linejoin="round"/>
    <path d="M21.344 6.66667H21.3307M20 14C20 15.5913 19.3679 17.1174 18.2426 18.2426C17.1174 19.3679 15.5913 20 14 20C12.4087 20 10.8826 19.3679 9.75736 18.2426C8.63214 17.1174 8 15.5913 8 14C8 12.4087 8.63214 10.8826 9.75736 9.75736C10.8826 8.63214 12.4087 8 14 8C15.5913 8 17.1174 8.63214 18.2426 9.75736C19.3679 10.8826 20 12.4087 20 14Z" stroke="white" stroke-linecap="round" stroke-linejoin="round"/>
</svg>
