<svg width="45" height="32" viewBox="0 0 45 32" fill="none" xmlns="http://www.w3.org/2000/svg">
    <g clip-path="url(#clip0_1334_1354)">
        <path d="M11.6248 28.0625L11.46 28.363L15.8616 30.7778L16.0264 30.4774L11.6248 28.0625Z" fill="white"/>
        <path d="M11.6258 25.5997L11.4585 25.8987L15.8605 28.3619L16.0278 28.0629L11.6258 25.5997Z" fill="white"/>
        <path d="M11.6249 24.4031L11.4595 24.7032L15.8613 27.1301L16.0267 26.83L11.6249 24.4031Z" fill="white"/>
        <path d="M7.81576 8.66041L7.64844 8.95943L12.0504 11.4226L12.2177 11.1236L7.81576 8.66041Z" fill="white"/>
        <path d="M7.81437 7.46339L7.64893 7.76346L12.0507 10.1904L12.2161 9.8903L7.81437 7.46339Z" fill="white"/>
        <path d="M0.214665 28.0642L0.0512695 28.3653L4.49669 30.777L4.66008 30.4758L0.214665 28.0642Z" fill="white"/>
        <path d="M0.21713 26.808L0.0512695 27.1079L4.49693 29.5671L4.6628 29.2672L0.21713 26.808Z" fill="white"/>
        <path d="M0.216885 25.617L0.0517578 25.9172L4.49765 28.3624L4.66277 28.0621L0.216885 25.617Z" fill="white"/>
        <path d="M0.215925 24.4025L0.0512695 24.703L4.49695 27.139L4.6616 26.8384L0.215925 24.4025Z" fill="white"/>
        <path d="M0.215311 23.2073L0.0517578 23.5084L4.49707 25.923L4.66062 25.6219L0.215311 23.2073Z" fill="white"/>
        <path d="M0.216083 21.967L0.0512695 22.2674L4.49683 24.7063L4.66164 24.4059L0.216083 21.967Z" fill="white"/>
        <path d="M0.215663 20.7546L0.0512695 21.0552L4.49676 23.486L4.66115 23.1854L0.215663 20.7546Z" fill="white"/>
        <path d="M0.215663 19.5364L0.0512695 19.8371L4.49676 22.2679L4.66115 21.9672L0.215663 19.5364Z" fill="white"/>
        <path d="M0.216677 11.0659L0.050293 11.3654L4.49569 13.8346L4.66208 13.5351L0.216677 11.0659Z" fill="white"/>
        <path d="M0.21713 9.86878L0.0512695 10.1686L4.49694 12.6278L4.6628 12.328L0.21713 9.86878Z" fill="white"/>
        <path d="M0.216397 8.67741L0.0512695 8.97765L4.49716 11.4228L4.66229 11.1226L0.216397 8.67741Z" fill="white"/>
        <path d="M0.216414 7.4635L0.0517578 7.764L4.49744 10.2L4.66209 9.89946L0.216414 7.4635Z" fill="white"/>
        <path d="M0.215799 6.26712L0.0522461 6.56823L4.49756 8.98284L4.66111 8.68174L0.215799 6.26712Z" fill="white"/>
        <path d="M0.216083 5.02584L0.0512695 5.32625L4.49683 7.76517L4.66164 7.46476L0.216083 5.02584Z" fill="white"/>
        <path d="M0.216151 3.81403L0.0517578 4.11468L4.49725 6.54549L4.66164 6.24484L0.216151 3.81403Z" fill="white"/>
        <path d="M0.216151 2.59495L0.0517578 2.89559L4.49725 5.3264L4.66164 5.02576L0.216151 2.59495Z" fill="white"/>
        <path d="M0.215978 12.2721L0.0512695 12.5726L4.49652 15.0093L4.66123 14.7088L0.215978 12.2721Z" fill="white"/>
        <path d="M0.216904 1.34666L0.0507812 1.64635L4.49603 4.1104L4.66215 3.8107L0.216904 1.34666Z" fill="white"/>
        <path d="M39.4388 2.57255V0L0.203549 0.0889584L0.019043 0.459289L4.50848 2.93102H39.4362L39.4237 6.206L7.84212 6.1579L7.65036 6.49858L12.093 8.9993L43.9421 8.90243V2.60088L39.4388 2.57255ZM12.182 8.65599L8.4668 6.56579L39.5495 6.54998L43.1204 8.56307L12.182 8.65664V8.65599ZM43.5995 8.43853L39.767 6.27717L39.7795 2.91718L43.5995 2.9409V8.43787V8.43853Z" fill="white"/>
        <path d="M40.3766 25.5719V23.0943H11.6542L11.4519 23.4929L15.9308 25.9548H40.2942L40.2791 29.2311H15.9625L11.6259 26.8108L11.4592 27.1099L15.8735 29.5737H40.4043L44.0852 31.6573H15.9598L11.6259 29.2449L11.4592 29.5441L15.2554 31.6573H4.63311L0.216154 29.2693L0.0527344 29.5711L4.54678 32H44.7876V25.5719H40.3773H40.3766ZM44.4443 31.4662L40.6217 29.3029L40.6376 25.9146H44.4437V31.4662H44.4443Z" fill="white"/>
        <path d="M35.7129 12.1722L12.0829 12.2558L7.81614 9.87043L7.64811 10.1683L12.0506 12.6301L12.0539 12.6242V13.4492L7.81482 11.1231L7.65009 11.4223L12.0519 13.8386L12.0539 13.834V14.6202L7.81482 12.2723L7.64943 12.5728L12.0545 15.0103V15.034L35.56 15.0419L35.5066 18.3413L0.139356 18.3399L0.000976562 18.6345L4.5372 21.0713L40.114 21.0509V15.0432H40.116V14.6808L35.7135 12.1708L35.7129 12.1722ZM4.6222 20.7293L0.8161 18.6833L35.6305 18.6846L39.2817 20.7089L4.62286 20.7293H4.6222ZM39.7707 20.5889L35.8479 18.4124L35.9026 15.1177H39.7707V20.5883V20.5889Z" fill="white"/>
    </g>
    <defs>
        <clipPath id="clip0_1334_1354">
            <rect width="44.7876" height="32" fill="white"/>
        </clipPath>
    </defs>
</svg>
